# xmcd
#
# Track frame offsets: 
#        182
#        16752
#        53652
#        90807
#
# Disc length: 4440 seconds
#
# Revision: 0
# Processed by: cddbd v1.5.2PL0 Copyright (c) Steve Scherf et al.
# Submitted via: ExactAudioCopy v0.95b4
#
DISCID=1a115604
DTITLE=Circ - Destroy she said
DYEAR=1900
DGENRE=
TTITLE0=Short
TTITLE1=Original
TTITLE2=De Donatis Remix
TTITLE3=Video
EXTD=
EXTT0=
EXTT1=
EXTT2=
EXTT3=
PLAYORDER=
